<?xml version='1.0' encoding='utf-8'?>
<!DOCTYPE svg PUBLIC '-//W3C//DTD SVG 1.1//EN' 'http://www.w3.org/Graphics/SVG/1.1/DTD/svg11.dtd'>
<!-- Uploaded to: SVG Repo, www.svgrepo.com, Generator: SVG Repo Mixer Tools -->
<svg fill="#000000" height="30px" width="30" version="1.1" xmlns="http://www.w3.org/2000/svg" viewBox="0 0 512 512" xmlns:xlink="http://www.w3.org/1999/xlink" enable-background="new 0 0 512 512">
  <g>
    <path d="m501,226.3c0-47.6-76.3-75-165.5-85 0.3-70.2-12.5-96.7-25.4-111.3-11.4-12.9-26.5-19.3-44.8-19.1-43.1,0.6-78.7,48.3-98.5,131.6-85,10.8-155.8,38-155.8,83.8 0,4 0.6,7.9 1.6,11.6l51.9,206.6c1.5,6.2 5.8,11.3 11.6,13.8 73.3,32.1 137.7,42.9 191.1,42.9 105.6,0 168.3-42.1 172.1-44.8 4.1-2.8 7-7.1 8.2-11.9l51.7-206.3c0.4-1.1 1.8-9 1.8-11.9zm-40.8,0c0,11.4-46.9,36.1-135.2,45.1 4.6-34.5 7.5-64 9-89.2 82.4,9.7 126.2,33.1 126.2,44.1zm-194.4-174.6c22.4,1.42109e-14 29.1,36.3 29,86.3-12.9-0.7-25.9-1-38.8-1-15.3,0-30.7,0.5-46,1.4 16.2-59 39.4-86.7 55.8-86.7zm-9.8,126.1c13.1,0 25.5,0.3 37.4,1-1.6,26-4.8,57.1-9.8,94.4-0.1,0.4-0.1,0.7-0.1,1.1-8.8,0.3-18,0.5-27.4,0.5-132.6,0-204.2-34.4-204.2-48.5-0.1-14.1 71.5-48.5 204.1-48.5zm153.9,248.7c-27,15.2-140.4,68.1-308.3-1.7l-35.8-139.5c48,20.5 120.6,30.3 190.2,30.3 69.1,0 141.3-9.6 189.2-29.9l-35.3,140.8z"/>
  </g>
</svg>